<svg xmlns="http://www.w3.org/2000/svg" width="8.438" height="16.877" viewBox="0 0 8.438 16.877"><defs><style>.a{fill:#40abe4;fill-rule:evenodd;}</style></defs><path class="a" d="M579.206,657.863v-9.644a3.014,3.014,0,0,1,3.014-3.014h0a3.014,3.014,0,0,1,3.014,3.014v9.644a1.808,1.808,0,0,1-1.808,1.808v0a1.808,1.808,0,0,1-1.808-1.808v-9.644a.6.6,0,0,1,.6-.6v0a.6.6,0,0,1,.6.6v7.233a.6.6,0,1,0,1.205,0v-7.233a1.808,1.808,0,0,0-1.808-1.808v0a1.808,1.808,0,0,0-1.808,1.808v9.644a3.014,3.014,0,0,0,3.014,3.014v0a3.014,3.014,0,0,0,3.014-3.014v-9.644A4.219,4.219,0,0,0,582.219,644h0A4.22,4.22,0,0,0,578,648.219v9.644a.6.6,0,1,0,1.206,0Z" transform="translate(-578 -644)"/></svg>