<svg xmlns="http://www.w3.org/2000/svg" width="18.426" height="16.332" viewBox="0 0 18.426 16.332"><defs><style>.a{fill:#fa6e6e;}</style></defs><path class="a" d="M16.877,16.254,14.114,14.06H7.244a2.68,2.68,0,0,1-2.576-2.215l1.07-.876H12.1a3.69,3.69,0,0,0,3.689-3.69V4.054a2.726,2.726,0,0,1,2.631,2.812v4.36A2.845,2.845,0,0,1,17.14,13.64l.228,2.324a.3.3,0,0,1-.138.327.3.3,0,0,1-.353-.036ZM1.3,12.373a.314.314,0,0,1-.155-.335l.245-2.352A2.835,2.835,0,0,1,0,7.247V2.812A2.813,2.813,0,0,1,2.814,0H12.1a2.812,2.812,0,0,1,2.812,2.812V7.278a2.81,2.81,0,0,1-2.807,2.811H4.651L1.664,12.333a.321.321,0,0,1-.213.081A.326.326,0,0,1,1.3,12.373Z"/></svg>