<svg xmlns="http://www.w3.org/2000/svg" width="20.498" height="18.167" viewBox="0 0 20.498 18.167"><defs><style>.a{fill:#c1c1c1;}.b{fill:#6a6a6a;}</style></defs><g transform="translate(5105 601.063)"><g transform="translate(-107 -3)"><g transform="translate(-4998 -598.063)"><path class="a" d="M16.464,6H6.128A3.128,3.128,0,0,0,3,9.128v4.934a3.153,3.153,0,0,0,1.542,2.713l-.273,2.616a.351.351,0,0,0,.581.327l3.323-2.494h8.3A3.128,3.128,0,0,0,19.592,14.1V9.128A3.128,3.128,0,0,0,16.464,6ZM7.68,12.344a.976.976,0,1,1,.976-.976.976.976,0,0,1-.976.976Zm3.416,0a.976.976,0,1,1,.976-.976.976.976,0,0,1-.976.976Zm3.416,0a.976.976,0,1,1,.976-.976.976.976,0,0,1-.976.976Z" transform="translate(-3 -6)"/><path class="b" d="M28.944,18.368v4.851a3.167,3.167,0,0,1-1.43,2.684l.254,2.586a.332.332,0,0,1-.547.322l-3.074-2.44H16.5a2.982,2.982,0,0,1-2.865-2.464l1.191-.976h7.081a4.1,4.1,0,0,0,4.1-4.1V15.24A3.035,3.035,0,0,1,28.944,18.368Z" transform="translate(-8.448 -10.731)"/></g></g></g></svg>