<svg xmlns="http://www.w3.org/2000/svg" width="15.01" height="14.985" viewBox="0 0 15.01 14.985"><defs><style>.a{fill:#3e3e3e;}</style></defs><path class="a" d="M46.609,98.666c-.757-.9-1.614-1.924-2.567-1.924a1.507,1.507,0,0,0-.985.4,7.011,7.011,0,0,0-.617.62,5.821,5.821,0,0,1-.529.533.23.23,0,0,1-.154.044,5.62,5.62,0,0,1-2.5-1.664,10.446,10.446,0,0,1-2.225-2.807c-.121-.285-.142-.5-.058-.585.117-.121.264-.254.419-.394.658-.593,1.558-1.405,1.054-2.282a.155.155,0,0,0-.021-.028q-1.1-1.154-2.2-2.307l-.013-.012a1.5,1.5,0,0,0-.947-.386c-.757,0-1.4.744-1.909,1.342a2.734,2.734,0,0,0-.908,2.834c.248,2.292,1.806,5,4.17,7.246,2.348,2.23,5.007,3.562,7.113,3.562a4.332,4.332,0,0,0,1.235-.171,4.658,4.658,0,0,0,2.384-2.453.9.9,0,0,0-.168-.9C47.007,99.14,46.813,98.91,46.609,98.666Z" transform="translate(-32.396 -87.873)"/></svg>