<svg xmlns="http://www.w3.org/2000/svg" width="19.246" height="16.328" viewBox="0 0 19.246 16.328"><defs><style>.a{fill:#75d092;}</style></defs><g transform="translate(0 0)"><path class="a" d="M9.815,14.765,6.958,12.638l2.856-2.127A1.076,1.076,0,0,0,8.3,10.288L5.8,12.132l-.77-.567a.264.264,0,0,1-.1-.263,1.232,1.232,0,0,0,0-.608,1.277,1.277,0,1,0-.587,1.378.243.243,0,0,1,.284.02l.729.547-.729.547a.245.245,0,0,1-.284.02,1.232,1.232,0,0,0-.891-.162,1.281,1.281,0,1,0,1.5,1.459,1.516,1.516,0,0,0-.02-.527.264.264,0,0,1,.1-.263l.77-.567L8.3,14.988A1.073,1.073,0,0,0,9.815,14.765ZM3.7,11.5a.527.527,0,0,1,0-1.053.527.527,0,0,1,0,1.053Zm0,3.322A.536.536,0,0,1,3.17,14.3a.527.527,0,1,1,1.053,0A.5.5,0,0,1,3.7,14.826ZM6.269,12.9a.263.263,0,1,1,.263-.263A.283.283,0,0,1,6.269,12.9Z" transform="translate(-2.4 -9.701)"/><path class="a" d="M36.068,76H34.042a.138.138,0,0,0-.142.142v.547a.138.138,0,0,0,.142.142h2.026a.138.138,0,0,0,.142-.142v-.547A.138.138,0,0,0,36.068,76Z" transform="translate(-27.519 -62.569)"/><path class="a" d="M20.86,72.651h-.709v-.709a.138.138,0,0,0-.142-.142h-.567a.138.138,0,0,0-.142.142V73.36a.138.138,0,0,0,.142.142H20.86A.138.138,0,0,0,21,73.36v-.547A.144.144,0,0,0,20.86,72.651Z" transform="translate(-15.876 -59.22)"/><path class="a" d="M19.429,39.109H20a.138.138,0,0,0,.142-.142V36.942A.138.138,0,0,0,20,36.8h-.567a.138.138,0,0,0-.142.142v2.026C19.267,39.049,19.348,39.109,19.429,39.109Z" transform="translate(-15.864 -31.31)"/><path class="a" d="M19.2,56.168a.138.138,0,0,0,.142.142h.567a.138.138,0,0,0,.142-.142V54.142A.138.138,0,0,0,19.909,54h-.547a.138.138,0,0,0-.142.142v2.026Z" transform="translate(-15.797 -45.026)"/><path class="a" d="M51.342,22.951h2.026a.138.138,0,0,0,.142-.142v-.567a.138.138,0,0,0-.142-.142H51.342a.138.138,0,0,0-.142.142v.567A.138.138,0,0,0,51.342,22.951Z" transform="translate(-41.314 -19.588)"/><path class="a" d="M36.068,22.1H34.042a.138.138,0,0,0-.142.142v.567a.138.138,0,0,0,.142.142h2.026a.138.138,0,0,0,.142-.142v-.567A.138.138,0,0,0,36.068,22.1Z" transform="translate(-27.519 -19.588)"/><path class="a" d="M68.962,22.951h.709v.709a.138.138,0,0,0,.142.142h.547a.138.138,0,0,0,.142-.142V22.242a.138.138,0,0,0-.142-.142H68.942a.138.138,0,0,0-.142.142v.567A.157.157,0,0,0,68.962,22.951Z" transform="translate(-55.348 -19.588)"/><path class="a" d="M73.889,36.8h-.547a.138.138,0,0,0-.142.142v2.026a.138.138,0,0,0,.142.142h.547a.138.138,0,0,0,.142-.142V36.942A.138.138,0,0,0,73.889,36.8Z" transform="translate(-58.857 -31.31)"/><path class="a" d="M59.587,55.094H58.473a.57.57,0,0,1-.486-.263l-.263-.405a.893.893,0,0,0-.77-.425H54.806a.945.945,0,0,0-.77.425l-.243.405a.57.57,0,0,1-.486.263H52.193a.994.994,0,0,0-.993.993v4.275a.994.994,0,0,0,.993.993h7.374a.994.994,0,0,0,.993-.993V56.107A.97.97,0,0,0,59.587,55.094ZM55.88,60.321a2.269,2.269,0,1,1,2.269-2.269A2.265,2.265,0,0,1,55.88,60.321Z" transform="translate(-41.314 -45.026)"/><path class="a" d="M69.117,67.5a1.317,1.317,0,1,0,1.317,1.317A1.289,1.289,0,0,0,69.117,67.5Z" transform="translate(-54.551 -55.791)"/></g></svg>