<svg xmlns="http://www.w3.org/2000/svg" width="17" height="17.874" viewBox="0 0 17 17.874"><defs><style>.a{fill:#f3be5b;}.b{fill:#9d7d48;}</style></defs><g transform="translate(4726.749 153.309)"><g transform="translate(193 -3)"><path class="a" d="M29.527,11.59a.573.573,0,0,0-.286-.491l-1.627-.939a6.957,6.957,0,0,0,.116-1.223,6.994,6.994,0,0,0-.117-1.223l1.627-.939a.573.573,0,0,0,.286-.491c0-.492-1.466-3.457-2.229-3.457a.576.576,0,0,0-.288.077l-1.631.942a6.7,6.7,0,0,0-2.117-1.221V.743a.561.561,0,0,0-.437-.552,8.565,8.565,0,0,0-3.594,0,.563.563,0,0,0-.437.552V2.624a6.7,6.7,0,0,0-2.116,1.22L15.044,2.9a.574.574,0,0,0-.288-.077c-.688,0-2.229,2.861-2.229,3.457a.573.573,0,0,0,.286.491l1.627.939a6.466,6.466,0,0,0,0,2.445l-1.627.939a.573.573,0,0,0-.286.491c0,.492,1.466,3.457,2.229,3.457a.576.576,0,0,0,.288-.077l1.631-.942a6.686,6.686,0,0,0,2.117,1.22v1.881a.561.561,0,0,0,.437.552A8.642,8.642,0,0,0,21,17.874a8.978,8.978,0,0,0,1.8-.191.587.587,0,0,0,.468-.553V15.249a6.692,6.692,0,0,0,2.117-1.221l1.631.942a.576.576,0,0,0,.288.077C27.984,15.046,29.527,12.187,29.527,11.59Zm-8.5.14a2.793,2.793,0,1,1,2.793-2.793A2.8,2.8,0,0,1,21.027,11.73Z" transform="translate(-4932.276 -150.309)"/><path class="b" d="M6.7,19.091a.56.56,0,0,1-.437-.552V16.658A6.7,6.7,0,0,1,4.906,16l2.013-3.35A2.792,2.792,0,1,0,9.79,7.87L11.8,4.52a6.67,6.67,0,0,1,1.048.734l1.631-.941a.579.579,0,0,1,.288-.077C15.534,4.235,17,7.2,17,7.693a.573.573,0,0,1-.286.491l-1.627.94a6.516,6.516,0,0,1,0,2.444l1.627.94A.573.573,0,0,1,17,13c0,.6-1.543,3.456-2.23,3.457a.578.578,0,0,1-.288-.076l-1.631-.942a6.689,6.689,0,0,1-2.117,1.221V18.54a.588.588,0,0,1-.469.553,8.986,8.986,0,0,1-1.8.191A8.623,8.623,0,0,1,6.7,19.091Z" transform="translate(-4919.749 -151.719)"/></g></g></svg>