<svg xmlns="http://www.w3.org/2000/svg" width="20.498" height="19.58" viewBox="0 0 20.498 19.58"><defs><style>.a{fill:#6a6a6a;}.b{fill:#c1c1c1;}</style></defs><g transform="translate(5105 482.593)"><g transform="translate(-107 -3)"><g transform="translate(-235.751)"><path class="a" d="M31.351.682l2.5,5.063,5.6.814a1.223,1.223,0,0,1,.679,2.088l-4.05,3.9.958,5.564A1.226,1.226,0,0,1,35.261,19.4l-5.007-2.592L25.247,19.44a1.226,1.226,0,0,1-1.778-1.289l.958-5.564L20.376,8.648a1.224,1.224,0,0,1,.679-2.088l5.6-.814,2.5-5.063A1.225,1.225,0,0,1,31.351.682Z" transform="translate(-4782.253 -479.594)"/><path class="b" d="M31.351.682l2.5,5.063c.01.036-3.568,11.234-3.6,11.067L25.247,19.44a1.226,1.226,0,0,1-1.778-1.289l.958-5.564L20.376,8.648a1.224,1.224,0,0,1,.679-2.088l5.6-.814,2.5-5.063A1.225,1.225,0,0,1,31.351.682Z" transform="translate(-4782.253 -479.594)"/></g></g></g></svg>