<svg xmlns="http://www.w3.org/2000/svg" width="20.782" height="12.757" viewBox="0 0 20.782 12.757"><defs><style>.a{fill:#c1c1c1;}.b,.c{fill:#6a6a6a;}.c{fill-rule:evenodd;}</style></defs><g transform="translate(5105 367.499)"><g transform="translate(-107 -3)"><g transform="translate(-236 5.001)"><g transform="translate(127.972 166.5)"><path class="a" d="M62.118,47.722H51.572a3.193,3.193,0,0,1-3.191-3.17v-.014a.209.209,0,0,0,0-.026h0A4.091,4.091,0,0,1,52,40.424a.371.371,0,0,0,.311-.27,4.767,4.767,0,0,1,9.353,1.3v.054a.367.367,0,0,0,.358.375.4.4,0,0,0,.081-.007,2.744,2.744,0,0,1,3.16,2.253,2.83,2.83,0,0,1,.037.406.355.355,0,0,0,.008.075A3.193,3.193,0,0,1,62.118,47.722Z" transform="translate(-4938.353 -570.965)"/><path class="b" d="M79.171,39.016A2.173,2.173,0,0,1,77,41.17H75.468a3.42,3.42,0,0,0-2.842-1.528c-.075,0-.151,0-.229,0a5.5,5.5,0,0,0-2.248-4.1,3.3,3.3,0,0,1,6.222.354.367.367,0,0,0,.311.264,2.823,2.823,0,0,1,2.49,2.8v.045Z" transform="translate(-4948.362 -569.501)"/></g><path class="c" d="M62.716,54.7a.242.242,0,0,1-.2.119H61.441v2.219a.228.228,0,0,1-.072.166.2.2,0,0,1-.143.06h-2A.2.2,0,0,1,59,57.093a.211.211,0,0,1,0-.058V54.817H57.926a.223.223,0,0,1-.191-.345l2.3-2.551a.2.2,0,0,1,.179-.1.215.215,0,0,1,.179.1l2.3,2.551A.23.23,0,0,1,62.716,54.7Z" transform="translate(-4813.653 -415.877)"/></g></g></g></svg>